<svg width="16" height="16" version="1.1" viewBox="0 0 4.2333 4.2333" xmlns="http://www.w3.org/2000/svg"><g transform="translate(-44.867 -75.991)"><path fill="currentColor" d="m46.984 76.122c-1.1725 0-2.1164 0.94437-2.1164 2.1169-5.6e-5 0.39755 0.112 0.78759 0.32333 1.1246l1.7645-2.2814c0.01275-0.01632 0.04434-0.01632 0.05708 0l0.73695 0.95285h-0.5278l0.01143 0.04204h0.54908l0.1557 0.20085h-0.64821l0.01818 0.06591h0.6809l0.13701 0.17697h-0.76861l0.02386 0.08511h0.81013l0.12248 0.15777h-0.88849l0.02906 0.1038h0.93936l0.10743 0.13857h-1.0084l0.03218 0.1147h1.0649l0.09912 0.12819h-1.1283l0.03218 0.11469h1.1848c0.21132-0.33704 0.32339-0.72708 0.32333-1.1246 1e-6 -1.1725-0.94436-2.1169-2.1169-2.1169zm0.64455 3.3697 0.03218 0.1147h0.93934c0.03063-0.03616 0.06232-0.07645 0.09055-0.1147zm0.06799 0.24288 0.03166 0.1147h0.62849c0.04111-0.03504 0.08566-0.07553 0.12565-0.11469zm0.06747 0.24288 0.03218 0.11418h0.21222c0.06271-0.03599 0.12082-0.07262 0.18368-0.11418z" image-rendering="auto" stop-color="#000000" style="paint-order:markers fill stroke"/></g></svg>